<?xml version="1.0" encoding="utf-8"?>
<!-- Generator: Adobe Illustrator 26.0.1, SVG Export Plug-In . SVG Version: 6.00 Build 0)  -->
<svg version="1.1" id="Layer_1" xmlns="http://www.w3.org/2000/svg" xmlns:xlink="http://www.w3.org/1999/xlink" x="0px" y="0px"
	 viewBox="0 0 100 100" style="enable-background:new 0 0 100 100;" xml:space="preserve">
<style type="text/css">
	.st0{fill:#676CDA;}
</style>
<g>
	<path class="st0" d="M41,18.3c-0.1,0-0.2,0-0.3,0c0,0,0,0-0.1,0c-4.5,0-8.2,3.6-8.5,8.1c-0.5-0.1-1.1-0.2-1.6-0.2
		c-4.8,0-8.7,4-8.7,8.9c0,2.2,0.8,4.3,2.2,6c-0.5,0.1-1.1,0.3-1.6,0.5c-3.1,1.3-5.3,4.4-5.3,8c0,0,0,0,0,0c0,0,0,0.1,0,0.1
		c0,4.3,3,7.8,6.9,8.7c-1.4,1.6-2.2,3.7-2.2,5.9c0,4.9,3.9,8.9,8.7,8.9c0.6,0,1.1-0.1,1.7-0.2c0,0.1,0,0.1,0,0.2
		c0,4.9,3.9,8.9,8.7,8.9s8.7-4,8.7-8.9V27.8C49.7,22.8,45.6,18.3,41,18.3z M47.7,73.4c0,3.8-3,6.9-6.7,6.9s-6.7-3.1-6.7-6.9
		c0-0.5,0-0.6,0.2-0.9c0-0.1,0.1-0.3,0.1-0.4c2.6-1.5,4.3-4.3,4.3-7.6c0-0.6-0.4-1-1-1s-1,0.4-1,1c0,3.7-2.9,6.7-6.5,6.7
		s-6.5-3-6.5-6.7c0-0.1,0-0.2,0-0.2c0.1-2.3,1.2-4.5,3.2-5.7c0.4-0.2,0.6-0.7,0.4-1.2s-0.6-0.7-1-0.7c-0.2,0-0.4,0-0.5,0
		c-3.7,0-6.7-3.1-6.7-6.9c0-2.8,1.7-5.3,4.1-6.4c0.8-0.3,1.6-0.5,2.4-0.5c3.6,0,6.5,3,6.5,6.7c0,0.6,0.4,1,1,1s1-0.4,1-1
		c0-4.2-3-7.8-6.9-8.5c0,0,0,0-0.1,0c-2.1-1.3-3.3-3.5-3.3-5.9c0-3.8,3-6.9,6.7-6.9c0.6,0,1.1,0.1,1.7,0.3c0.7,4.1,4.2,7.2,8.4,7.2
		c0.6,0,1-0.4,1-1s-0.4-1-1-1c-3.3,0-6-2.5-6.4-5.7c0-0.1,0.1-0.3,0.1-0.4c0-0.1,0-0.2,0-0.3c0-3.8,3-6.9,6.7-6.9
		c3.6,0,6.7,3.5,6.7,7.5L47.7,73.4L47.7,73.4z"/>
	<path class="st0" d="M84.3,49.7c0-3.6-2.2-6.8-5.3-8c-0.5-0.2-1-0.4-1.6-0.5c1.4-1.6,2.2-3.7,2.2-6c0-4.9-3.9-8.9-8.7-8.9
		c-0.6,0-1.2,0.1-1.7,0.2c-0.4-4.5-4.2-8.1-8.7-8.1c-4.7,0-8.7,4.4-8.7,9.5v45.6c0,4.9,3.9,8.9,8.7,8.9c4.8,0,8.7-4,8.7-8.9
		c0-0.1,0-0.1,0-0.2c0.6,0.1,1.1,0.2,1.7,0.2c4.8,0,8.7-4,8.7-8.9c0-2.2-0.8-4.3-2.2-5.9c3.9-0.9,6.9-4.4,6.9-8.7
		C84.3,49.8,84.3,49.8,84.3,49.7C84.3,49.7,84.3,49.7,84.3,49.7z M60.5,73.4c-1.1,0-2-0.9-2-2s0.9-2,2-2c1.1,0,2,0.9,2,2
		C62.5,72.5,61.6,73.4,60.5,73.4z M70.9,65.9c-1.1,0-2-0.9-2-2c0-1.1,0.9-2,2-2c1.1,0,2,0.9,2,2C72.9,65,72,65.9,70.9,65.9z
		 M75.6,56.8c-0.2,0-0.4,0-0.5,0c-0.5,0-0.9,0.2-1,0.7s0,0.9,0.4,1.2c2,1.3,3.2,3.5,3.2,5.9c0,3.4-2.5,6.3-5.7,6.8v-3.5
		c1.7-0.4,3-2,3-3.9c0-2.2-1.8-4-4-4s-4,1.8-4,4c0,1.9,1.3,3.4,3,3.9v3.5c-0.6-0.1-1.1-0.2-1.7-0.5c-0.4-0.2-0.8-0.1-1.1,0.2
		c-0.3,0.3-0.4,0.7-0.3,1c0.1,0.2,0.1,0.3,0.1,0.5c0.1,0.4,0.2,0.5,0.2,0.9c0,3.5-2.5,6.3-5.7,6.8v-5c1.7-0.4,3-2,3-3.9
		c0-2.2-1.8-4-4-4s-4,1.8-4,4c0,1.9,1.3,3.4,3,3.9v5c-3.2-0.5-5.7-3.4-5.7-6.8V52.8h2.9c0.4,1.7,2,3,3.9,3c2.2,0,4-1.8,4-4
		s-1.8-4-4-4c-1.9,0-3.4,1.3-3.9,3h-2.9V37.2h6.7h1.3H66c0.4,1.7,2,3,3.9,3c2.2,0,4-1.8,4-4s-1.8-4-4-4c-1.9,0-3.4,1.3-3.9,3h-3.3
		v-4c1.7-0.4,3-2,3-3.9c0-2.2-1.8-4-4-4s-4,1.8-4,4c0,1.9,1.3,3.4,3,3.9v4h-0.3h-6.7v-7.4c0-4,3.2-7.5,6.7-7.5
		c3.7,0,6.7,3.1,6.7,6.9c0,0.1,0,0.2,0,0.4c0,0.3,0.1,0.7,0.4,0.9c0.3,0.2,0.6,0.3,0.9,0.1c0.8-0.3,1.6-0.4,2.4-0.4
		c3.7,0,6.7,3.1,6.7,6.9c0,2.5-1.2,4.7-3.3,5.9c0,0,0,0-0.1,0c-3.9,0.7-6.9,4.3-6.9,8.5c0,0.6,0.4,1,1,1s1-0.4,1-1
		c0-3.7,2.9-6.7,6.5-6.7c0.9,0,1.7,0.2,2.4,0.5c2.4,1.1,4.1,3.5,4.1,6.4C82.3,53.7,79.3,56.8,75.6,56.8z M58.4,51.9c0-1.1,0.9-2,2-2
		c1.1,0,2,0.9,2,2c0,1.1-0.9,2-2,2C59.3,53.9,58.4,53,58.4,51.9z M61.8,29.4c-1.1,0-2-0.9-2-2c0-1.1,0.9-2,2-2c1.1,0,2,0.9,2,2
		C63.8,28.5,62.9,29.4,61.8,29.4z M67.9,36.2c0-1.1,0.9-2,2-2c1.1,0,2,0.9,2,2c0,1.1-0.9,2-2,2C68.8,38.2,67.9,37.3,67.9,36.2z"/>
</g>
</svg>
